# xmcd
#
# Track frame offsets: 
#        150
#        16537
#        44183
#        64794
#        80147
#        96902
#        113193
#        129952
#        145313
#
# Disc length: 2123 seconds
#
# Revision: 0
# Processed by: cddbd v1.5.2PL0 Copyright (c) Steve Scherf et al.
# Submitted via: ExactAudioCopy v1.3
#
DISCID=7a084909
DTITLE=David Oliver - Mind Magic '78
DYEAR=1978
DGENRE=Soul
TTITLE0=Who You Are
TTITLE1=I Wanna Write You A Love Song
TTITLE2=Housewives Are People Too
TTITLE3=When The Thrill Comes
TTITLE4=Private Secretary
TTITLE5=One Night Man
TTITLE6=Southern Comfort
TTITLE7=I Surrender
TTITLE8=Take My Emptiness
EXTD=
EXTT0=
EXTT1=
EXTT2=
EXTT3=
EXTT4=
EXTT5=
EXTT6=
EXTT7=
EXTT8=
PLAYORDER=
